<svg width="1000" height="1000" viewBox="0 0 1000 1000" fill="none" xmlns="http://www.w3.org/2000/svg">
<rect width="1000" height="1000" fill="black"/>
<path d="M522.104 366.84L511.713 384.84L486.695 428.177L483.231 434.177H253.61L250.145 428.177L225.125 384.84L214.733 366.84H522.104Z" fill="white" stroke="black" stroke-width="24"/>
<path d="M766.161 812.522L762.721 818.513L737.772 861.975L727.395 880.051L463.07 422.228L466.534 416.227L491.555 372.89L501.947 354.891L766.161 812.522Z" fill="white" stroke="black" stroke-width="24"/>
<path d="M528.223 871.968L517.83 853.969L492.809 810.634L489.344 804.634L492.808 798.633L680.52 473.509L690.912 455.509L701.304 473.509L726.325 516.845L729.789 522.846L528.223 871.968Z" fill="white" stroke="black" stroke-width="24"/>
<path d="M214.732 860.181L225.124 842.181L250.142 798.844L253.606 792.844L509.861 792.844L513.326 798.844L538.347 842.181L548.738 860.181L214.732 860.181Z" fill="white" stroke="black" stroke-width="24"/>
<path d="M79.2161 601.562L99.9999 601.56L150.04 601.559L156.968 601.559L274.306 804.793L270.842 810.794L245.821 854.13L235.428 872.13L79.2161 601.562Z" fill="white" stroke="black" stroke-width="24"/>
<path d="M235.428 354.892L245.821 372.89L270.843 416.225L274.307 422.225L156.97 625.459L150.041 625.46L99.9999 625.46L79.2156 625.459L235.428 354.892Z" fill="white" stroke="black" stroke-width="24"/>
<path d="M656.629 133L646.238 151L621.22 194.337L617.756 200.337H388.135L384.67 194.337L359.649 151L349.258 133H656.629Z" fill="white" stroke="black" stroke-width="24"/>
<path d="M900.686 578.682L897.246 584.673L872.298 628.135L861.92 646.211L597.596 188.388L601.06 182.387L626.08 139.05L636.473 121.051L900.686 578.682Z" fill="white" stroke="black" stroke-width="24"/>
<path d="M662.749 638.128L652.356 620.129L627.334 576.794L623.869 570.794L627.333 564.793L815.045 239.669L825.437 221.669L835.83 239.669L860.85 283.005L864.314 289.006L662.749 638.128Z" fill="white" stroke="black" stroke-width="24"/>
<path d="M349.258 626.341L359.65 608.341L384.667 565.004L388.132 559.004L644.387 559.004L647.852 565.004L672.873 608.341L683.264 626.341L349.258 626.341Z" fill="white" stroke="black" stroke-width="24"/>
<path d="M213.742 367.722L234.525 367.72L284.565 367.719L291.494 367.719L408.831 570.953L405.367 576.954L380.347 620.29L369.954 638.29L213.742 367.722Z" fill="white" stroke="black" stroke-width="24"/>
<path d="M369.953 121.052L380.347 139.05L405.368 182.385L408.832 188.385L291.495 391.62L284.566 391.62L234.525 391.62L213.741 391.619L369.953 121.052Z" fill="white" stroke="black" stroke-width="24"/>
</svg>
